<?xml version="1.0" encoding="utf-8" standalone="no"?>
<!DOCTYPE svg PUBLIC "-//W3C//DTD SVG 1.1//EN" "http://www.w3.org/Graphics/SVG/1.1/DTD/svg11.dtd">
<svg version="1.1" class="svg-plot" xmlns="http://www.w3.org/2000/svg" width="299.55pt" height="190pt" viewBox="-40.8 -15 299.55 190" preserveAspectRatio="xMidYMid"><rect x="-30.8" y="-5" width="279.55" height="170" class="svg-plot-bg"/><rect x="0" y="0" width="240" height="130" class="svg-plot-axis"/><line x1="0" x2="0" y1="0" y2="130" class="svg-plot-major"/><line x1="0" x2="0" y1="0" y2="130" class="svg-plot-minor"/><line x1="240" x2="240" y1="0" y2="130" class="svg-plot-minor"/><line x1="0" x2="240" y1="65" y2="65" class="svg-plot-major"/><line x1="0" x2="240" y1="130" y2="130" class="svg-plot-minor"/><line x1="0" x2="240" y1="0" y2="0" class="svg-plot-minor"/><clipPath id="clip0"><rect x="-0.75" y="-0.75" width="241.5" height="131.5"/></clipPath><g clip-path="url(#clip0)"><path class="svg-plot-line svg-plot-s0 svg-plot-d0" d="M 0 67.51 0.94 64.68 1.88 66.55 2.81 63.44 3.75 64.57 4.69 65.1 5.63 65.75 6.56 63.01 8.44 63.76 9.38 66.64 10.31 63.19 11.25 63.94 12.19 64.93 13.13 65.99 14.06 67.44 15 67.06 15.94 65.68 16.88 66.78 17.81 66.68 18.75 62.54 19.69 65.27 20.63 66.92 21.56 67.5 22.5 67.47 23.44 65.61 24.38 64.84 25.31 64.64 26.25 64.49 27.19 64.46 28.13 66.68 29.06 64.18 30 65.25 30.94 65.74 31.88 67.23 32.81 64.46 33.75 63.57 34.69 63.48 35.63 64.9 36.56 66 37.5 63.11 38.44 63.86 39.38 62.7 40.31 62.86 41.25 64.8 42.19 66.8 43.13 65.19 44.06 66.33 45 63.17 45.94 66.46 46.88 63.59 47.81 63.27 48.75 62.5 49.69 62.48 50.63 64.44 51.56 65.54 52.5 66.18 53.44 66.02 54.38 63.29 55.31 67.4 56.25 65.62 57.19 67.05 58.13 64.11 59.06 67.24 60 67.47 60.94 62.89 61.88 66.13 62.81 66.14 63.75 64.56 64.69 64.04 65.63 63.3 66.56 63.86 67.5 65.08 68.44 66.48 69.38 63.77 70.31 65.16 71.25 65.21 72.19 62.74 73.13 63.77 74.06 66.97 75 64.5 75.94 65.58 76.88 63.82 77.81 64.45 78.75 64.63 80.63 66.76 81.56 66.38 82.5 65.38 83.44 63.47 84.38 64.91 85.31 62.53 86.25 63.73 87.19 65.78 88.13 66.67 89.06 64.21 90 65.04 90.94 67.2 91.88 63.99 92.81 64.98 93.75 66.78 94.69 62.73 95.63 66.81 96.56 62.96 97.5 64.03 98.44 65.99 99.38 65.37 100.31 67.16 101.25 62.65 102.19 64.08 103.13 66.75 104.06 63.1 105 63.38 105.94 64.59 106.88 66.56 107.81 66.62 108.75 63.4 109.69 65.12 110.63 66.74 111.56 64.98 112.5 63.83 113.44 65.48 114.38 66.11 115.31 64.65 116.25 64.08 117.19 63.71 118.13 63.88 119.06 65.12 120 66.9 120.94 65.67 121.88 63.31 122.81 67.34 123.75 64.91 124.69 64.18 125.63 65.37 126.56 66.99 127.5 62.74 128.44 62.88 129.38 64.75 130.31 65.78 131.25 65.14 132.19 65.63 133.13 63.25 134.06 65.92 135 65.22 135.94 66.15 136.88 62.57 137.81 66.02 138.75 63.8 139.69 64.66 140.63 66.53 141.56 63.68 142.5 63.29 143.44 65.52 144.38 65 145.31 63.03 146.25 67.38 147.19 62.51 148.13 64.63 149.06 67.26 150 64.84 150.94 66.54 151.88 63.27 152.81 64.36 153.75 64.21 154.69 66.52 155.63 63.28 156.56 66.9 157.5 66.96 158.44 63.78 159.38 65.94 160.31 62.78 161.25 66.08 162.19 65.83 163.13 66.81 164.06 63.83 165 63.31 165.94 63.95 166.88 64.49 167.81 63.75 168.75 66.25 169.69 66.79 170.63 67.51 171.56 67.21 172.5 63.46 173.44 63.22 174.38 66.46 175.31 66.94 176.25 64.73 177.19 67.45 178.13 66.95 179.06 65.23 180 63.73 180.94 64.06 181.88 64.78 182.81 67.15 183.75 65.32 184.69 66.5 185.63 64.01 186.56 66.06 187.5 65.32 188.44 66.35 189.38 64.61 190.31 64.84 191.25 64.35 192.19 66.71 193.13 64.98 194.06 62.67 195 64.01 195.94 62.86 196.88 66.56 197.81 65.83 198.75 66.62 199.69 62.51 200.63 65.21 201.56 62.49 202.5 67.03 203.44 64.37 204.38 67.04 205.31 65.31 206.25 62.83 207.19 67.28 208.13 63.01 209.06 66.06 210 66.37 210.94 63.65 211.88 65.45 212.81 66.5 213.75 64.36 214.69 64.48 215.63 65.24 216.56 65.17 217.5 64.51 218.44 64.32 219.38 63.21 220.31 63.34 221.25 64.37 222.19 63.89 223.13 64.67 225 66.59 225.94 63.8 226.88 64.72 227.81 62.96 228.75 66.3 229.69 66.57 230.63 64.47 231.56 64 232.5 64.57 233.44 65.75 234.38 65.03 235.31 67.11 236.25 63.79 237.19 64.43 238.13 64.39 239.06 64.04"/></g><g><line x1="0" x2="0" y1="130" y2="134" class="svg-plot-tick"/><line x1="0" x2="0" y1="130" y2="134" class="svg-plot-tick"/><line x1="240" x2="240" y1="130" y2="134" class="svg-plot-tick"/><line x1="0" x2="0" y1="130" y2="134" class="svg-plot-tick"/><line x1="0" x2="-4" y1="65" y2="65" class="svg-plot-tick"/><line x1="0" x2="-4" y1="130" y2="130" class="svg-plot-tick"/><line x1="0" x2="-4" y1="0" y2="0" class="svg-plot-tick"/><text class="svg-plot-label svg-plot-t" x="0" y="0" transform="rotate(-90) translate(-64 -25.8)">amplitude</text><text class="svg-plot-value" style="text-anchor:end" x="-9" y="-1">1</text><text class="svg-plot-value" style="text-anchor:end" x="-9" y="129">-1</text><text class="svg-plot-value" style="text-anchor:end" x="-9" y="64">0</text><text class="svg-plot-label svg-plot-t" x="120" y="159">time</text><text class="svg-plot-value" x="0" y="143">0</text><text class="svg-plot-value" x="240" y="143">256</text><text class="svg-plot-value" x="0" y="143">0</text><text class="svg-plot-value" x="0" y="143">0</text></g><defs><g id="svg-plot-marker0" class="svg-plot-marker"><circle cx="0" cy="0" r="1" stroke="none"/></g><g id="svg-plot-marker1" class="svg-plot-marker"><path d="M0 0.9 -0.9 0 0 -0.9 0.9 0Z" fill="#FFFA" stroke-linejoin="miter" stroke-width="0.5"/></g><g id="svg-plot-marker2" class="svg-plot-marker"><path fill="none" d="M0 -1.2 0 1.2 M -1.2 0 1.2 0" stroke-width="0.6"/></g><g id="svg-plot-marker3" class="svg-plot-marker"><circle cx="0" cy="0" fill="#FFFA" r="0.82" stroke-width="0.55"/></g><g id="svg-plot-marker4" class="svg-plot-marker"><path stroke="none" d="M0 -1.25 1.25 0.9 -1.25 0.9Z"/></g><mask id="svg-plot-hatch1"><rect x="-352" y="-352" width="704" height="704" fill="url(#svg-plot-hatch1-pattern)" style="transform:rotate(-50deg)"/></mask><pattern patternUnits="userSpaceOnUse" id="svg-plot-hatch1-pattern" class="svg-plot-hatch" x="0" y="0" width="10" height="3"><line x1="-1" x2="11" y1="1.5" y2="1.5" stroke="#FFF" fill="none"/><rect x="-1" y="-1" width="12" height="12" fill="#FFF2" stroke="none"/></pattern><mask id="svg-plot-hatch2"><rect x="-352" y="-352" width="704" height="704" fill="url(#svg-plot-hatch2-pattern)" style="transform:rotate(30deg)"/></mask><pattern patternUnits="userSpaceOnUse" id="svg-plot-hatch2-pattern" class="svg-plot-hatch" x="0" y="0" width="10" height="2.4"><line x1="-1" x2="11" y1="1.2" y2="1.2" stroke="#FFF" fill="none"/><rect x="-1" y="-1" width="12" height="12" fill="#FFF2" stroke="none"/></pattern><mask id="svg-plot-hatch3"><rect x="-352" y="-352" width="704" height="704" fill="url(#svg-plot-hatch3-pattern)" style="transform:rotate(8deg)"/><rect x="-352" y="-352" width="704" height="704" fill="url(#svg-plot-hatch3-pattern)" style="transform:rotate(93deg)"/></mask><pattern patternUnits="userSpaceOnUse" id="svg-plot-hatch3-pattern" class="svg-plot-hatch" x="0" y="0" width="10" height="3"><line x1="-1" x2="11" y1="1.5" y2="1.5" stroke="#FFF" fill="none"/><rect x="-1" y="-1" width="12" height="12" fill="#FFF2" stroke="none"/></pattern></defs><style>.svg-plot{stroke-linecap:butt;stroke-linejoin:round;}.svg-plot-bg{fill:none;stroke:none;}.svg-plot-axis{stroke:none;fill:#FFFFFFD9;}.svg-plot-legend{stroke:none;fill:#FFFFFFE4;}.svg-plot-line{stroke:blue;fill:none;stroke-width:1.5px;stroke-linejoin:round;}.svg-plot-fill{stroke:none;opacity:0.28;}.svg-plot-major{stroke:#000;stroke-width:1px;stroke-linecap:square;fill:none;}.svg-plot-minor{stroke:#0000004D;stroke-width:0.5px;stroke-dasharray:0.5 1.5;stroke-linecap:round;fill:none;}.svg-plot-tick{stroke:#000;fill:none;stroke-width:1px;stroke-linecap:butt;}.svg-plot-value,.svg-plot-label{font-family:Arial,sans-serif;fill:#000;stroke:#FFFFFF48;stroke-width:2.5px;paint-order:stroke fill;text-anchor:middle;dominant-baseline:central;alignment-baseline:baseline;}.svg-plot-label{font-size:12px;}.svg-plot-value{font-size:10px;}.svg-plot-hatch{stroke:#FFF;stroke-width:1px;}.svg-plot-marker{transform:scale(3.25);}.svg-plot-s{stroke:#000;}.svg-plot-f,.svg-plot-t{fill:#000;}.svg-plot-s0{stroke:#0073E6}.svg-plot-f0,.svg-plot-t0{fill:#0073E6}.svg-plot-s1{stroke:#CC0000}.svg-plot-f1,.svg-plot-t1{fill:#CC0000}.svg-plot-s2{stroke:#00B300}.svg-plot-f2,.svg-plot-t2{fill:#00B300}.svg-plot-s3{stroke:#806600}.svg-plot-f3,.svg-plot-t3{fill:#806600}.svg-plot-s4{stroke:#E69900}.svg-plot-f4,.svg-plot-t4{fill:#E69900}.svg-plot-s5{stroke:#CC00CC}.svg-plot-f5,.svg-plot-t5{fill:#CC00CC}.svg-plot-d0{stroke-width:1.35px}.svg-plot-d1{stroke-dasharray:1.8 1.8}.svg-plot-d2{stroke-dasharray:4.2 2.4}.svg-plot-d3{stroke-dasharray:7.5 6}.svg-plot-d4{stroke-dasharray:6 1.5 1.5 1.5 1.5 1.5}.svg-plot-d5{stroke-dasharray:15 4.5}.svg-plot-d6{stroke-dasharray:6 3 1.5 3}.svg-plot-h0{opacity:0.14}.svg-plot-h1{mask:url(#svg-plot-hatch1)}.svg-plot-h2{mask:url(#svg-plot-hatch2)}.svg-plot-h3{mask:url(#svg-plot-hatch3)}#svg-plot-hatch2-pattern{stroke-width:0.9px}#svg-plot-hatch3-pattern{stroke-width:0.7px}</style></svg>